<svg width="24" height="24" viewBox="0 0 24 24" fill="none" xmlns="http://www.w3.org/2000/svg">
<path d="M3.42857 0C1.5375 0 0 1.5375 0 3.42857V20.5714C0 22.4625 1.5375 24 3.42857 24H20.5714C22.4625 24 24 22.4625 24 20.5714V3.42857C24 1.5375 22.4625 0 20.5714 0H3.42857ZM3.69643 9.11786H7.25893V20.5714H3.69643V9.11786ZM7.5375 5.49107C7.5375 6.63214 6.61607 7.55357 5.475 7.55357C4.33393 7.55357 3.4125 6.63214 3.4125 5.49107C3.4125 4.35 4.33393 3.42857 5.475 3.42857C6.61607 3.42857 7.5375 4.35 7.5375 5.49107ZM17.0304 20.5714V15C17.0304 13.6714 17.0036 11.9625 15.1821 11.9625C13.3286 11.9625 13.0446 13.4089 13.0446 14.9036V20.5714H9.4875V9.11786H12.9V10.6821H12.9482C13.425 9.78214 14.5875 8.83393 16.3179 8.83393C19.9179 8.83393 20.5875 11.2071 20.5875 14.2929V20.5714H17.0304Z" fill="#5F5E5B"/>
</svg>
